<?xml version="1.0" standalone="no"?>
<!DOCTYPE svg PUBLIC "-//W3C//DTD SVG 20010904//EN"
 "http://www.w3.org/TR/2001/REC-SVG-20010904/DTD/svg10.dtd">
<svg version="1.0" xmlns="http://www.w3.org/2000/svg"
 width="1024.000000pt" height="1024.000000pt" viewBox="0 0 1024.000000 1024.000000"
 preserveAspectRatio="xMidYMid meet">
<metadata>
Created by potrace 1.14, written by Peter Selinger 2001-2017
</metadata>
<g transform="translate(0.000000,1024.000000) scale(0.100000,-0.100000)"
fill="#000000" stroke="none">
<path d="M4940 8674 c-162 -16 -285 -38 -385 -68 -27 -8 -79 -23 -115 -34 -71
-20 -123 -45 -205 -98 -30 -18 -57 -34 -60 -34 -7 0 -118 -82 -152 -113 -21
-19 -38 -21 -200 -22 -194 -2 -347 -17 -397 -39 -17 -8 -62 -22 -101 -31 -68
-17 -145 -43 -195 -68 -49 -24 -214 -129 -269 -171 -125 -96 -253 -248 -304
-360 -9 -21 -31 -55 -48 -74 -26 -29 -29 -37 -18 -46 8 -6 13 -24 11 -42 -3
-26 -8 -33 -34 -38 -44 -9 -248 -109 -310 -153 -106 -74 -253 -211 -315 -293
-51 -67 -140 -319 -144 -406 -5 -110 33 -265 91 -372 34 -62 34 -58 -33 -137
l-35 -40 -13 28 c-7 15 -16 27 -20 27 -10 0 -23 -106 -14 -120 3 -6 -7 -50
-24 -99 -42 -122 -53 -211 -41 -322 17 -149 63 -261 156 -379 98 -125 243
-238 381 -296 l63 -27 1 -46 c2 -205 111 -406 309 -569 80 -66 103 -81 220
-140 97 -49 293 -114 385 -127 48 -7 287 -34 295 -33 20 2 40 -4 52 -14 34
-33 95 -73 170 -112 46 -23 123 -64 171 -91 237 -129 504 -184 822 -171 185 8
216 11 306 32 36 8 72 16 80 18 7 1 30 9 49 19 19 9 60 26 90 37 30 12 81 35
113 51 l58 29 87 -29 c51 -16 124 -31 177 -36 50 -4 106 -9 125 -11 156 -16
288 -8 483 30 145 28 390 127 514 207 63 41 212 161 213 172 0 4 26 40 59 80
32 39 64 82 70 95 7 13 21 22 35 22 44 0 250 48 336 78 86 30 227 95 244 112
6 6 17 10 25 10 15 0 99 52 111 68 3 4 34 30 69 57 71 55 171 154 171 168 0 6
16 34 36 63 95 144 133 275 131 449 l-2 119 28 10 c24 9 31 7 43 -9 15 -20 15
-20 34 5 10 13 21 36 24 50 2 14 30 50 61 80 66 61 155 178 190 248 13 26 36
81 51 122 24 67 27 89 28 210 0 185 -26 273 -130 436 l-52 80 3 75 c4 90 -16
196 -48 246 -16 26 -26 60 -30 106 -34 364 -287 644 -712 786 -55 19 -107 39
-115 46 -8 8 -44 25 -80 40 -57 23 -68 33 -88 72 -34 66 -111 160 -185 226
-36 31 -68 57 -70 57 -3 0 -29 16 -58 36 -74 50 -217 116 -319 147 -190 57
-330 75 -535 71 -135 -3 -200 -11 -386 -50 -18 -4 -39 3 -70 23 -24 17 -60 36
-79 43 -19 7 -40 17 -46 22 -20 14 -151 57 -237 77 -145 34 -356 48 -497 35z
m350 -113 c25 -6 63 -13 85 -16 154 -24 398 -133 466 -208 l27 -29 82 26 c129
40 200 50 324 42 61 -4 120 -7 131 -7 11 1 43 -4 70 -9 28 -5 74 -12 104 -15
30 -4 75 -11 100 -16 25 -5 64 -12 86 -15 l40 -5 -50 30 c-58 35 -54 37 23 15
85 -25 211 -87 317 -156 92 -60 218 -196 218 -235 0 -7 4 -13 8 -13 3 0 22
-34 40 -75 18 -41 33 -75 33 -75 1 -1 37 -7 81 -16 44 -8 85 -16 90 -18 34 -9
62 -20 74 -30 8 -6 26 -11 41 -12 15 -1 42 -8 61 -17 19 -9 67 -29 108 -46
105 -44 155 -79 256 -177 74 -73 117 -133 155 -217 31 -69 55 -166 37 -148
-18 18 -28 13 -17 -9 5 -11 14 -29 20 -40 5 -11 11 -55 11 -97 2 -69 -3 -89
-35 -170 -20 -50 -34 -97 -31 -104 3 -8 21 -25 41 -38 19 -13 58 -46 85 -72
l50 -48 -16 -31 c-9 -17 -31 -48 -49 -68 -42 -48 -66 -83 -66 -98 0 -7 19 -19
42 -28 39 -16 42 -16 60 1 10 11 20 28 22 40 3 12 12 35 20 52 9 16 16 37 16
46 0 59 85 -74 105 -166 12 -54 14 -78 16 -189 1 -114 -16 -184 -69 -285 -65
-120 -209 -272 -325 -341 -85 -51 -87 -54 -70 -116 13 -50 13 -197 0 -253 -3
-11 -8 -33 -12 -50 -25 -104 -168 -312 -249 -362 -22 -14 -45 -30 -51 -37 -36
-41 -140 -112 -228 -154 -161 -79 -314 -123 -505 -147 -49 -7 -54 -9 -79 -53
-24 -42 -133 -177 -158 -194 -5 -4 -13 -5 -17 -2 -14 9 -47 -16 -50 -38 -4
-28 -110 -102 -233 -162 -252 -124 -546 -176 -830 -146 -66 7 -127 13 -135 12
-22 0 -129 27 -173 43 -49 19 -74 18 -117 -5 -120 -64 -221 -101 -350 -130
-103 -24 -159 -25 -225 -4 -59 18 -154 25 -210 15 l-40 -7 33 -17 c17 -10 32
-20 32 -24 0 -7 -161 4 -238 18 -85 15 -178 38 -214 54 l-33 14 28 1 c15 0 27
5 27 10 0 6 -3 10 -7 11 -33 3 -201 56 -218 69 -5 4 -25 12 -42 18 -60 20
-168 106 -221 176 -23 30 -24 30 -116 27 l-93 -2 -54 55 c-48 48 -59 55 -99
57 -40 3 -45 1 -42 -16 2 -11 15 -35 28 -53 l25 -32 -23 0 c-22 0 -154 28
-228 48 -91 25 -331 139 -360 172 -3 3 -34 29 -70 58 -160 129 -250 321 -242
516 3 63 -16 100 -45 89 -9 -4 -21 0 -27 8 -6 8 -20 15 -31 17 -40 7 -63 31
-70 71 -6 34 -15 46 -52 71 -25 17 -48 29 -50 26 -3 -3 -8 -19 -12 -35 l-6
-30 -31 27 c-17 15 -47 41 -66 58 -98 87 -188 241 -218 375 -25 112 12 334 55
334 16 0 20 7 21 41 1 50 34 109 103 184 28 30 50 62 51 71 0 8 -12 31 -26 50
-90 120 -137 324 -100 434 9 26 19 69 23 94 3 25 11 53 18 61 15 18 46 75 60
112 5 14 21 41 35 60 41 55 176 184 227 217 26 17 54 35 61 42 21 17 237 117
284 130 60 17 65 23 73 80 43 311 419 636 835 723 14 3 43 12 65 19 22 8 67
18 100 22 32 3 62 8 66 11 12 7 221 6 296 -1 l69 -7 46 38 c43 37 65 54 130
104 47 36 217 120 243 120 14 0 42 -7 62 -15 24 -10 48 -13 68 -9 30 7 51 11
100 18 14 3 51 18 83 34 149 78 365 107 532 73z m-652 -47 c-11 -11 -23 -14
-35 -9 -16 7 -15 9 7 15 40 12 45 11 28 -6z m3782 -1759 c10 -36 14 -68 9 -71
-12 -7 -69 37 -69 53 0 19 32 95 37 89 3 -3 13 -34 23 -71z"/>
<path d="M7770 7622 c11 -15 37 -51 57 -80 35 -51 110 -112 138 -112 16 0 11
27 -15 85 -28 63 -76 97 -173 126 l-28 8 21 -27z"/>
<path d="M1757 5747 c-34 -66 -34 -108 1 -174 28 -55 52 -69 51 -30 0 12 2 61
5 109 4 66 2 94 -10 117 -9 17 -17 31 -18 31 -2 0 -15 -24 -29 -53z"/>
<path d="M5580 3815 c-12 -15 -7 -17 63 -28 33 -5 34 0 5 24 -25 23 -51 24
-68 4z"/>
<path d="M2753 3220 c-79 -40 -149 -125 -199 -240 -24 -55 -29 -78 -29 -155 0
-81 3 -94 26 -130 52 -77 142 -148 214 -166 67 -17 242 1 312 31 79 34 163
150 193 265 25 97 0 175 -81 255 -63 62 -73 69 -179 120 -89 43 -195 51 -257
20z m157 -84 c82 -26 194 -100 244 -163 34 -44 29 -122 -14 -207 -45 -88 -76
-112 -176 -131 -109 -21 -159 -19 -212 7 -56 29 -132 111 -133 147 -6 105 39
214 123 300 56 57 96 69 168 47z"/>
<path d="M1999 2129 c-89 -13 -142 -57 -183 -152 -33 -73 -33 -112 0 -195 39
-102 56 -131 93 -159 38 -30 146 -63 201 -63 76 1 154 57 193 140 24 52 23 50
36 110 30 135 -10 225 -123 280 -58 29 -162 47 -217 39z m129 -114 c104 -31
136 -86 112 -194 -16 -75 -55 -135 -96 -150 -49 -18 -144 3 -177 38 -40 41
-81 154 -72 198 8 42 49 101 79 113 33 14 98 11 154 -5z"/>
</g>
</svg>
